# xmcd
#
# Track frame offsets: 
#        150
#        11952
#        22935
#        34327
#        44802
#        56835
#        66792
#        80155
#        92570
#        102405
#        115115
#        130100
#        143697
#        158757
#        173482
#        187877
#        202107
#        216162
#        228097
#        242222
#
# Disc length: 3437 seconds
#
# Revision: 2
# Processed by: cddbd v1.4PL0 Copyright (c) Steve Scherf et al.
# Submitted via: ExactAudioCopy v0.90a11
#
DISCID=170d6b14
DTITLE=The Kendalls - 20 Greatest Hits (Deluxe)
DYEAR=1900
DGENRE=
TTITLE0=Sweet Desire
TTITLE1=Heaven's Just A Sin Away
TTITLE2=It Don't Feel Like Sinnin' To Me
TTITLE3=I Had A Lovely Time
TTITLE4=I'm Already Blue
TTITLE5=You'd Make An Angel Wanna Cheat
TTITLE6=Pittsburg Steelers
TTITLE7=Put It Off Until Tomorrow
TTITLE8=I Don't Do Like That No More
TTITLE9=Heart Of The Matter
TTITLE10=Never My Love
TTITLE11=Old Fashioned Love
TTITLE12=Just Like Real People
TTITLE13=Makin' Believe
TTITLE14=Leavin' On A Jet Plane
TTITLE15=You've Lost That Lovin' Feelin'
TTITLE16=Everlasting Love
TTITLE17=Don't Call Me Your Only Sunshine
TTITLE18=Here Today And Gone Tomorrow
TTITLE19=When Can We Do This Again
EXTD=
EXTT0=
EXTT1=
EXTT2=
EXTT3=
EXTT4=
EXTT5=
EXTT6=
EXTT7=
EXTT8=
EXTT9=
EXTT10=
EXTT11=
EXTT12=
EXTT13=
EXTT14=
EXTT15=\n\n
EXTT16=
EXTT17=
EXTT18=
EXTT19=
PLAYORDER=
